<?xml version="1.0" encoding="UTF-8"?><svg id="Guide_Grid" xmlns="http://www.w3.org/2000/svg" xmlns:xlink="http://www.w3.org/1999/xlink" viewBox="0 0 1903.63 1396"><defs><style>.cls-1{fill:url(#linear-gradient);}.cls-1,.cls-2,.cls-3,.cls-4{stroke-width:0px;}.cls-3{fill:#231f20;}.cls-4{fill:#fff;}</style><linearGradient id="linear-gradient" x1="850.9" y1="432.24" x2="1065.87" y2="725.8" gradientUnits="userSpaceOnUse"><stop offset="0" stop-color="#f9e500"/><stop offset=".14" stop-color="#f7ea88"/><stop offset=".42" stop-color="#bcaf00"/><stop offset=".44" stop-color="#c7ba19"/><stop offset=".48" stop-color="#d8ca3f"/><stop offset=".52" stop-color="#e6d85e"/><stop offset=".57" stop-color="#f1e376"/><stop offset=".61" stop-color="#f8eb87"/><stop offset=".66" stop-color="#fdef91"/><stop offset=".72" stop-color="#fff195"/><stop offset=".87" stop-color="#fff249"/><stop offset="1" stop-color="#dace62"/></linearGradient></defs><path class="cls-4" d="m952.29,381.74c-34.65,0-70.03,9.59-100.78,28.66-38.74,29.86-67.58,6.84-79.52,21.52-11.94,14.68,14.28,47.95,9.6,57.72-57.09,119.29,27.53,269.97,170.7,269.97"/><path class="cls-4" d="m952.29,381.74c34.65,0,70.03,9.59,100.78,28.66,38.74,29.86,67.58,6.84,79.52,21.52,11.94,14.68-14.28,47.95-9.6,57.72,57.09,119.29-27.53,269.97-170.7,269.97"/><path class="cls-3" d="m803.55,458.08c-7.32,7.82-10.12,11.82-14.12,21.02-6.59-9.63-12.31-30.3-7.94-34.39,4.37-4.09,15.47,3.73,22.06,13.36Z"/><path class="cls-3" d="m1101.46,458.08c7.32,7.82,10.12,11.82,14.12,21.02,6.59-9.63,12.31-30.3,7.94-34.39-4.37-4.09-15.47,3.73-22.06,13.36Z"/><path class="cls-1" d="m1128.63,638.6c8.34-21.63,12.58-44.44,12.58-67.9,0-25.5-5-50.25-14.85-73.54-.48-1.15-.99-2.28-1.49-3.42-2.52-6.1-5.53-11.99-9-17.64-8.21-14.19-18.24-27.25-29.99-39-17.35-17.35-37.55-30.97-60.05-40.49-22.15-9.37-45.62-14.34-69.8-14.8-1.17-.05-2.34-.08-3.52-.08-.06,0-.11,0-.17,0-.01,0-.03,0-.04,0-.02,0-.05,0-.07,0-1.02,0-2.03.03-3.04.07-24.41.39-48.09,5.36-70.43,14.81-22.5,9.52-42.7,23.14-60.05,40.49s-30.97,37.55-40.49,60.05c-9.85,23.29-14.85,48.03-14.85,73.54,0,23.46,4.24,46.28,12.59,67.91,1.35,4.08,3.04,8.04,5.05,11.87,9.32,20,21.97,38.08,37.7,53.8,17.35,17.35,37.55,30.97,60.05,40.49,10.17,4.3,20.63,7.68,31.3,10.12.44.15.9.25,1.37.3,4.69,1.03,9.42,1.89,14.18,2.56.71.1,1.42.2,2.13.29.42.05.84.11,1.26.16,7.78.97,15.61,1.46,23.44,1.46,13.81,0,27.63-1.52,41.2-4.55.15-.03.3-.06.45-.1,3.29-.74,6.56-1.57,9.82-2.49l.97-.27v-.05c7.1-2.06,14.09-4.53,20.96-7.43,22.5-9.52,42.7-23.14,60.05-40.49,15.73-15.73,28.38-33.8,37.69-53.8,2.01-3.83,3.71-7.81,5.06-11.89Zm-32.54,39.66c-13.41,9.89-29.94,15.78-47.82,15.89,1.03-.98,2.05-1.97,3.07-2.97,20.29-19.87,38.2-41.84,53.47-65.57,7.08,4.37,13.52,9.86,19.07,16.33-4.56,11.77-11.77,22.23-20.9,30.63-2.19,1.99-4.48,3.89-6.89,5.69Zm-167.85,77.16c-.61-.08-1.23-.16-1.84-.25-3.36-.47-6.7-1.04-10.04-1.7.94-.9,1.59-2.09,1.82-3.42,3.34-.57,6.64-1.27,9.9-2.1,5.28,3.07,10.64,6.01,16.08,8.82-4.9-.21-9.77-.6-14.59-1.18-.45-.06-.89-.11-1.34-.17Zm-154.9-213.65c0-32.87,12.8-63.77,36.04-87.01,19.88-19.88,45.36-32.11,72.88-35.24-8.85,13.33-14.01,29.31-14.01,46.47,0,7.86,1.09,15.48,3.11,22.7-11.27,10.27-23.4,19.61-36.19,27.91-2.36,1.33-4.68,2.74-6.96,4.23-.72.47-1.44.95-2.15,1.44-16.67,9.94-34.33,18.16-52.61,24.42-.06-1.64-.11-3.28-.11-4.93Zm-2.53,5.82c-1.16.38-2.32.76-3.49,1.13.98-8.39,2.52-16.66,4.61-24.76-.82,5.85-1.25,11.8-1.25,17.81,0,1.95.05,3.89.14,5.82Zm343.42-69.07c2.66,4.65,5.1,9.42,7.34,14.27,6.62,15.26,10.1,31.85,10.1,48.98,0,1.7-.04,3.39-.11,5.08-17.44-5.94-34.33-13.67-50.33-22.97-1.45-1.04-2.93-2.06-4.43-3.04-3.14-2.06-6.37-3.96-9.66-5.72-11.83-7.84-23.08-16.57-33.58-26.11,2.08-7.32,3.2-15.04,3.2-23.02,0-17.16-5.16-33.14-14.01-46.47,27.52,3.13,53,15.36,72.88,35.24,7.23,7.23,13.46,15.21,18.6,23.76Zm10.7,160.57c-5.5-6.19-11.8-11.47-18.68-15.72,2.97-4.7,5.85-9.46,8.61-14.29,4.25-6.68,7.83-13.72,10.73-21.04,2.45,7.75,3.77,15.99,3.77,24.54,0,9.28-1.56,18.2-4.43,26.52Zm-80.45,55c-12.98-.52-25.18-4.08-35.93-9.99,2.83-5.42,5.24-11.04,7.24-16.82,30.88-1.73,59.68-14.57,81.73-36.61.84-.84,1.66-1.69,2.48-2.55-14.59,22.06-31.49,42.54-50.52,61.17-1.65,1.62-3.32,3.22-5,4.81Zm-56.53,14.85c-4.12-.59-7.31-4.13-7.31-8.41,0-4.69,3.82-8.51,8.51-8.51,1.08,0,2.11.21,3.07.58v.02c.27.12.56.24.84.36,1.88.97,3.34,2.62,4.08,4.63-2.82,3.93-5.88,7.72-9.18,11.34Zm9.66-7.48c-.37,3.35-2.68,6.11-5.78,7.14,2.02-2.32,3.95-4.7,5.78-7.14Zm-14.93,12.94c-.46-1.9-.85-3.81-1.18-5.75,1.22,1.15,2.7,2.04,4.34,2.55-.27.29-.54.58-.82.86-.77.79-1.55,1.56-2.34,2.33Zm3.71,35.58c.23,1.38.9,2.6,1.87,3.52-9.02,1.76-18.23,2.85-27.56,3.26,5.45-2.82,10.82-5.76,16.12-8.84,3.16.8,6.35,1.49,9.57,2.05Zm9.73-1.38c-2.33-.22-4.64-.51-6.93-.87.51-1.37,1.82-2.35,3.36-2.35,1.85,0,3.38,1.41,3.57,3.22Zm-.76,2.6c-.42.53-.99.93-1.63,1.16-.27.06-.55.12-.82.18-.12.01-.23.02-.35.02-1.45,0-2.7-.87-3.27-2.11,2.01.3,4.04.55,6.07.76Zm-46.01,5.22c-.58-.29-1.17-.58-1.75-.88-2.3-1.53-3.82-4.13-3.82-7.09,0-3.41,2.02-6.35,4.92-7.71.13-.06.25-.11.38-.17.99-.4,2.07-.63,3.21-.63,4.69,0,8.51,3.82,8.51,8.51s-3.82,8.51-8.51,8.51c-1.04,0-2.03-.2-2.94-.54Zm-7.43-3.83c-3.43-1.82-6.83-3.69-10.2-5.61,3.59-1.03,7.13-2.21,10.61-3.56-.77,1.51-1.21,3.22-1.21,5.03,0,1.46.29,2.86.8,4.14Zm20.68.17c.56-1.33.87-2.78.87-4.31,0-1.89-.48-3.68-1.31-5.24,3.61,1.41,7.29,2.66,11.03,3.73-3.49,2-7.02,3.93-10.58,5.82Zm-181.6-111.16c5.54-6.39,11.95-11.8,18.98-16.11,15.29,23.79,33.23,45.81,53.56,65.73,1.01.99,2.02,1.97,3.04,2.94-34.48-.28-63.94-22.05-75.59-52.56Zm104.7-105.5c8.36,3.12,16.08,7.58,22.89,13.11-7.17,9.23-12.94,19.32-17.24,30.01-3.8-11.95-5.78-24.55-5.78-37.45,0-1.9.05-3.79.13-5.67Zm-49.15-17.21c12.76-7.2,26.64-12.03,41.07-14.31,2.23,4.32,4.83,8.41,7.74,12.25-1.02,5.12-1.74,10.32-2.12,15.59-8.19-2.66-16.93-4.11-25.99-4.11-22.77,0-43.46,9.08-58.64,23.82,8.02-10.65,17.76-19.98,28.89-27.6,3.05-1.82,6.07-3.7,9.05-5.64Zm106.21-125.97h1.03c0-4.4,3.36-8.03,7.64-8.47.29,0,.58-.01.87-.01s.58,0,.87.01c4.29.44,7.64,4.07,7.64,8.47h1.03c4.04,9.4,8.6,18.6,13.65,27.53-7.94,2.16-15.63,5.09-22.98,8.76-7.46-3.73-15.28-6.69-23.35-8.85,5.03-8.9,9.57-18.06,13.6-27.43Zm137.02,133.2c10.19,7.31,19.15,16.09,26.63,26.01-15.18-14.73-35.87-23.82-58.64-23.82-9.07,0-17.8,1.45-25.99,4.11-.38-5.27-1.1-10.47-2.12-15.59,2.92-3.84,5.51-7.94,7.74-12.25,13.42,2.12,26.37,6.44,38.38,12.83,4.58,3.04,9.25,5.94,14,8.7Zm-60.33,15.66c0,12.9-1.98,25.5-5.78,37.45-4.3-10.69-10.07-20.79-17.24-30.01,6.81-5.53,14.53-9.99,22.89-13.11.08,1.88.13,3.77.13,5.67Zm.56,84.35c0,13.3-2.11,26.29-6.16,38.59-1.74.07-3.48.12-5.23.12-7.34,0-14.57-.64-21.65-1.89,6.79-15.79,18.43-29.02,33.02-37.81,0,.33.01.66.01.99Zm2.64-2.52c11.67-6.45,25.07-10.12,39.32-10.12s27.06,3.44,38.83,9.81c-1.66,1.87-3.38,3.71-5.16,5.5-21.33,21.33-49.11,33.85-78.93,35.77,3.93-12.27,5.97-25.21,5.97-38.44,0-.84-.01-1.68-.03-2.52Zm-38.36,38.84c-.42-.08-.84-.18-1.26-.27-4.61-6-8.4-12.65-11.21-19.79,4.72-3.55,9.23-7.46,13.48-11.71,12.6-12.6,22.2-27.41,28.43-43.56,3.72,11.16,5.82,22.91,6.21,34.95-15.86,9.17-28.47,23.35-35.65,40.37Zm-47.87-21c3.29-9.01,5.09-18.73,5.09-28.86,0-25.44-11.33-48.28-29.21-63.74,1.7-2.1,3.48-4.15,5.32-6.15,10.64,4.86,22.45,7.57,34.89,7.57s24.25-2.71,34.89-7.57c1.85,2,3.62,4.05,5.32,6.15-17.88,15.46-29.21,38.3-29.21,63.74,0,10.13,1.8,19.86,5.09,28.86-5.13,3.73-10.51,7.04-16.1,9.91-5.59-2.87-10.97-6.18-16.1-9.91Zm13.14,11.38c-7.54,3.61-15.43,6.44-23.57,8.45,3.79-5.33,6.96-11.11,9.44-17.26,4.53,3.26,9.25,6.2,14.13,8.81Zm-57.84-149.64c1.74-.07,3.49-.11,5.24-.11,18.49,0,36.35,4.05,52.58,11.73-11.05,5.83-21.28,13.34-30.37,22.43-.73.73-1.46,1.48-2.17,2.22-11.28-5.48-21.11-13.47-28.77-23.26.93-4.41,2.09-8.75,3.49-13.01Zm-5.6,10.19c-2.09-2.93-4-6-5.7-9.19,2.8-.38,5.62-.66,8.45-.84-1.06,3.3-1.98,6.65-2.75,10.04Zm130.68,2.82c-7.66,9.78-17.49,17.78-28.77,23.26-.71-.75-1.44-1.49-2.17-2.22-9.09-9.09-19.32-16.6-30.37-22.43,16.23-7.68,34.09-11.73,52.58-11.73,1.75,0,3.5.04,5.24.11,1.4,4.26,2.56,8.6,3.49,13.01Zm-.64-12.86c2.83.18,5.65.47,8.45.84-1.7,3.2-3.6,6.27-5.7,9.19-.78-3.39-1.7-6.74-2.75-10.04Zm-7.79,34.27c-1.98,0-3.59-1.61-3.59-3.59s1.61-3.59,3.59-3.59,3.59,1.61,3.59,3.59-1.61,3.59-3.59,3.59Zm-2.73,2.03c-3.82,2.22-7.45,4.73-10.86,7.49-1.56-1.92-3.17-3.8-4.85-5.64,4.28-2.13,8.36-4.61,12.19-7.41.02,2.45,1.46,4.56,3.52,5.56Zm-20.17,1c-10.08,4.47-21.23,6.96-32.95,6.96s-22.87-2.49-32.95-6.96c.49-.51.99-1.02,1.49-1.53,9.37-9.37,19.98-17.03,31.46-22.85,11.48,5.82,22.09,13.49,31.46,22.85.5.5,1,1.02,1.49,1.53Zm22.61-40.23c-19.59,0-38.49,4.46-55.55,12.88-17.07-8.42-35.97-12.88-55.55-12.88-1.44,0-2.88.03-4.31.08,6.04-17,15.84-32.58,28.97-45.71,9.21-9.21,19.63-16.78,30.9-22.56,11.27,5.78,21.68,13.35,30.9,22.56,13.13,13.13,22.93,28.71,28.97,45.71-1.43-.05-2.87-.08-4.31-.08Zm-107.7,33.61c0,1.98-1.61,3.59-3.59,3.59s-3.59-1.61-3.59-3.59,1.61-3.59,3.59-3.59,3.59,1.61,3.59,3.59Zm2.66.13c3.8,2.77,7.84,5.23,12.08,7.34-1.68,1.84-3.29,3.72-4.85,5.64-3.4-2.76-7.01-5.26-10.81-7.46,2.08-.99,3.53-3.08,3.58-5.52Zm66.58,109.86c2.48,6.14,5.66,11.93,9.44,17.26-8.15-2-16.04-4.83-23.57-8.45,4.88-2.61,9.6-5.55,14.13-8.81Zm13.81-15.22c-3.97,3.97-8.17,7.63-12.56,10.98-3.02-8.51-4.67-17.66-4.67-27.19,0-24.59,10.94-46.68,28.2-61.65,7.64,9.86,13.67,20.72,17.96,32.26-6.04,16.95-15.83,32.49-28.93,45.6Zm31.09-93.62c.07-.38.11-.76.11-1.16,0-3.02-2.15-5.54-4.99-6.12,2.79-2.58,5.42-5.34,7.84-8.28.82,4.51,1.38,9.08,1.7,13.71-1.58.57-3.13,1.19-4.66,1.85Zm14.14-33.09c1.57-3.31,2.94-6.73,4.07-10.25,6.7,6.03,13.7,11.74,20.95,17.11-8.07-3.14-16.45-5.44-25.03-6.85Zm-2.76-.42c-3.52-.5-7.07-.85-10.64-1.05-6.14-17.76-16.27-34.05-29.95-47.73-8.94-8.94-18.98-16.36-29.83-22.15,6.86-3.29,14.01-5.93,21.39-7.88,13.95,24.11,31.47,46.24,51.82,65.28.62.58,1.24,1.15,1.86,1.72-1.25,4.08-2.81,8.03-4.66,11.81Zm-76.33-70.93c-10.84,5.79-20.89,13.21-29.83,22.15-13.68,13.68-23.81,29.96-29.95,47.73-3.57.2-7.12.55-10.64,1.05-1.89-3.88-3.48-7.93-4.75-12.12.51-.47,1.02-.94,1.53-1.41,20.38-19.07,37.93-41.24,51.88-65.38,7.5,1.97,14.78,4.64,21.76,7.98Zm-73.17,71.35c-8.9,1.47-17.59,3.88-25.94,7.21,7.55-5.56,14.82-11.48,21.77-17.76,1.16,3.63,2.55,7.15,4.17,10.55Zm11.18,17.53c2.43,2.94,5.06,5.71,7.86,8.3-2.8.62-4.9,3.12-4.9,6.1,0,.41.04.82.12,1.21-1.57-.68-3.16-1.31-4.78-1.9.31-4.63.88-9.2,1.7-13.71Zm23.08,31.31c17.26,14.97,28.2,37.06,28.2,61.65,0,9.53-1.65,18.68-4.67,27.19-4.39-3.35-8.59-7.01-12.56-10.98-13.1-13.1-22.89-28.64-28.93-45.6,4.29-11.54,10.32-22.4,17.96-32.27Zm9.09,79.75c4.25,4.25,8.76,8.15,13.48,11.71-2.81,7.14-6.61,13.79-11.21,19.79-.55.12-1.1.23-1.65.34-7.11-16.9-19.58-31.01-35.26-40.2.37-12.13,2.48-23.96,6.22-35.2,6.23,16.14,15.83,30.95,28.43,43.56Zm-2.08,32.34c-6.95,1.2-14.06,1.82-21.25,1.82-1.75,0-3.49-.04-5.22-.12-4.05-12.3-6.16-25.29-6.16-38.59,0-.25,0-.49,0-.74,14.42,8.81,25.91,21.96,32.63,37.63Zm-29.33,1.55c-29.83-1.92-57.61-14.45-78.93-35.77-1.84-1.84-3.6-3.72-5.3-5.65,11.7-6.27,24.89-9.66,38.54-9.66,14.42,0,27.98,3.77,39.75,10.36-.01.76-.03,1.52-.03,2.28,0,13.23,2.04,26.17,5.97,38.44Zm-32.91,24.75c-19.18-18.78-36.21-39.45-50.88-61.72.97,1.04,1.96,2.07,2.97,3.08,22.05,22.05,50.84,34.89,81.73,36.61,2,5.77,4.41,11.39,7.24,16.82-10.78,5.93-23.04,9.5-36.07,9.99-1.67-1.58-3.34-3.18-4.98-4.79Zm36.68-21.9c1.43.05,2.86.08,4.3.08,7.55,0,15-.67,22.29-1.96.06.16.12.32.18.48-5.74,6.61-12.52,12.28-20.08,16.77-2.58-4.97-4.81-10.1-6.69-15.36Zm27.8,1.44c2.65,7.79,4.15,16.12,4.3,24.76-2.05-2.59-5.21-4.26-8.76-4.26-1.77,0-3.44.43-4.93,1.16-1.94.83-3.9,1.6-5.87,2.31-1.63-2.51-3.16-5.08-4.59-7.69,7.42-4.4,14.12-9.9,19.86-16.28Zm-12.29,28.35c.78-1.83,2.18-3.32,3.93-4.23.28-.12.56-.23.84-.36v-.02c.95-.37,1.98-.58,3.06-.58,4.69,0,8.51,3.82,8.51,8.51,0,4.15-2.99,7.62-6.93,8.36-3.39-3.72-6.53-7.62-9.41-11.68Zm5.73,11.56c-3.58-.92-6.25-4.1-6.39-7.93,2.01,2.72,4.14,5.36,6.39,7.93Zm9.76-.11c-.3,1.82-.67,3.62-1.1,5.41-.67-.66-1.34-1.32-1.99-1.99-.32-.32-.62-.65-.93-.98,1.51-.52,2.88-1.36,4.02-2.44Zm3.79-13.58c0-10.01-1.76-19.62-4.98-28.53.54-.65,1.08-1.3,1.6-1.96,10.09-2.21,19.82-5.64,29.01-10.23,9.19,4.59,18.92,8.03,29.01,10.23.43.54.86,1.08,1.29,1.6-3.3,9.01-5.1,18.75-5.1,28.89,0,7.31.94,14.51,2.75,21.43-8.46,7.84-17.87,14.36-27.95,19.47-10.22-5.18-19.75-11.81-28.3-19.79,1.76-6.83,2.67-13.91,2.67-21.11Zm67.21-4.55c-1.49-.74-3.16-1.16-4.93-1.16-3.55,0-6.71,1.67-8.76,4.26.15-8.77,1.7-17.21,4.42-25.1,5.81,6.53,12.61,12.15,20.16,16.62-1.46,2.66-3.01,5.27-4.67,7.82-2.1-.74-4.17-1.55-6.22-2.43Zm-8.23-24.86c.03-.07.05-.14.08-.2,7.41,1.34,14.99,2.04,22.69,2.04,1.44,0,2.87-.03,4.3-.08-1.87,5.27-4.11,10.4-6.69,15.36-7.69-4.57-14.58-10.36-20.38-17.12Zm133.33-69.76l-.1-.05c-2.1,3.99-4.26,7.93-6.5,11.83-3,4.72-6.34,9.24-10.01,13.56-12.28-6.76-26.2-10.42-40.62-10.42s-27.65,3.55-39.41,9.81c-.55-12.95-3.06-25.56-7.38-37.47,4.56-13.13,6.94-27.07,6.94-41.38,0-2.21-.06-4.41-.17-6.6,8.12-2.72,16.8-4.19,25.83-4.19,30.61,0,57.33,16.95,71.29,41.95.31.64.61,1.29.91,1.94l.11-.05c1.57,2.99,2.96,6.09,4.15,9.28-1.47,4.02-3.15,7.96-5.04,11.8Zm2.24-24.19c-7.01-14.59-16.73-27.61-28.61-38.45,12.46,6.41,25.38,11.89,38.6,16.36-.66,10.53-2.63,20.8-5.85,30.62-1.22-2.93-2.61-5.78-4.14-8.53Zm-87.33-105.71c0,7.25-.96,14.28-2.74,20.98-.29-.27-.58-.53-.86-.8-19.98-18.7-37.2-40.39-50.95-64.02,9.41-2.27,19.15-3.44,29.08-3.44,3.58,0,7.14.16,10.67.46,9.32,13.26,14.81,29.41,14.81,46.82Zm-25.48-49.95c-10.41,0-20.62,1.26-30.47,3.7-6.39-11.23-12-22.89-16.75-34.86,22.67,2.47,42.58,14.26,55.8,31.45-2.84-.19-5.71-.29-8.58-.29Zm-82.14,3.61c-9.73-2.38-19.81-3.61-30.09-3.61-2.88,0-5.74.1-8.58.29,13.14-17.08,32.87-28.83,55.35-31.4-4.74,11.92-10.32,23.53-16.68,34.72Zm-30.09-.94c9.79,0,19.41,1.15,28.7,3.36-13.76,23.66-31,45.39-51.01,64.11-.17.16-.35.32-.52.48-1.73-6.6-2.65-13.53-2.65-20.66,0-17.41,5.48-33.56,14.81-46.82,3.53-.3,7.09-.46,10.67-.46Zm-83.62,114.02c-12.14,10.94-22.06,24.15-29.18,38.97-1.53,2.75-2.92,5.6-4.14,8.53-3.24-9.87-5.21-20.19-5.86-30.76,13.44-4.56,26.55-10.17,39.18-16.74Zm-27.83,42.08l.11.05c.3-.65.6-1.3.91-1.94,13.96-25,40.68-41.95,71.29-41.95,9.02,0,17.71,1.48,25.83,4.19-.11,2.19-.17,4.39-.17,6.6,0,14.31,2.38,28.25,6.94,41.38-4.35,11.98-6.85,24.66-7.39,37.69-11.87-6.39-25.43-10.03-39.83-10.03s-28.12,3.6-40.33,10.26c-4.29-5.08-8.14-10.45-11.52-16.06-1.68-2.99-3.32-6-4.92-9.04-1.9-3.87-3.59-7.83-5.07-11.87,1.19-3.19,2.58-6.29,4.15-9.28Zm-1.49,22.29h0s.01.03.02.04c1.54,3.14,3.21,6.22,5.02,9.23,3.21,5.71,6.57,11.33,10.06,16.86-6.84,4.2-13.1,9.41-18.58,15.51-2.79-8.22-4.31-17.02-4.31-26.18,0-8.55,1.32-16.79,3.77-24.54,1.22,3.08,2.55,6.1,4.01,9.07Zm73.8,99.72c.71,0,1.42,0,2.13-.03.51.48,1.02.96,1.54,1.43-3.99-.37-7.97-.98-11.92-1.81,2.72.27,5.47.4,8.25.4Zm5.85-.21c12.48-.86,24.22-4.45,34.62-10.17,1.35,2.46,2.79,4.88,4.31,7.26-11.87,3.87-24.37,5.48-36.84,4.83-.7-.64-1.4-1.28-2.09-1.92Zm7.44,4.73c11.2,0,22.35-1.78,33-5.34.37.55.73,1.09,1.11,1.63-.25.92-.39,1.88-.39,2.88,0,6.16,5.01,11.18,11.18,11.18.17,0,.34-.02.51-.03.7.76,1.42,1.51,2.14,2.25,1.03,1.05,2.08,2.08,3.13,3.09-1.82,6.56-4.46,12.85-7.87,18.75-15.85-10.31-30.91-21.81-45.08-34.45.76.02,1.51.03,2.27.03Zm52.87,17.71c7.97,7.28,16.74,13.43,26.11,18.37-.5.23-.99.46-1.49.69-.1.04-.2.09-.3.13-6.2,2.81-12.64,5.1-19.25,6.84-4.35-2.54-8.64-5.17-12.88-7.88,3.32-5.73,5.94-11.82,7.82-18.16Zm1.37,26.95c-2.22.51-4.45.97-6.71,1.36-.7-2.65-3.1-4.61-5.96-4.65.73-1.06,1.43-2.13,2.1-3.21,3.48,2.23,7,4.4,10.56,6.51Zm-12.75,6.54s-.04,0-.05,0c-.48-.11-.96-.22-1.44-.33-.5-.23-.94-.57-1.28-.99,2.01-.19,4.02-.44,6.01-.73-.58,1.21-1.81,2.04-3.23,2.04Zm-3.57-3.92c.17-1.82,1.71-3.25,3.57-3.25,1.57,0,2.9,1.01,3.39,2.41-2.3.35-4.62.62-6.96.84Zm84.01-5.91c-2.83.04-5.21,1.96-5.94,4.58-2.15-.38-4.29-.82-6.41-1.31,3.48-2.07,6.92-4.18,10.32-6.36.65,1.04,1.33,2.07,2.03,3.09Zm-16.04,2.35c-7.21-1.91-14.21-4.46-20.93-7.64,9.24-4.87,17.89-10.92,25.77-18.07,1.88,6.27,4.5,12.3,7.8,17.98-4.16,2.66-8.37,5.23-12.64,7.73Zm7.03-27.73c1.17-1.11,2.34-2.25,3.47-3.41.72-.74,1.43-1.48,2.12-2.23.03,0,.07,0,.1,0,6.16,0,11.18-5.01,11.18-11.18,0-.84-.1-1.65-.28-2.43.46-.65.9-1.3,1.34-1.96,10.55,3.48,21.57,5.22,32.65,5.22.85,0,1.7-.01,2.55-.03-14.23,12.69-29.36,24.24-45.29,34.58-3.38-5.84-6.02-12.07-7.85-18.56Zm19.46-23.51c1.55-2.41,3.01-4.87,4.38-7.37,10.37,5.7,22.06,9.28,34.49,10.16-.69.64-1.39,1.28-2.09,1.91-12.45.68-24.92-.88-36.78-4.7Zm42.58,2.97c.76.02,1.51.03,2.28.03,2.53,0,5.03-.12,7.5-.34-3.74.78-7.51,1.35-11.29,1.71.5-.47,1.01-.94,1.51-1.41Zm86.05-75.19c.32-2.97.49-5.98.49-9.03,0-9.99-1.75-19.57-4.95-28.47,3.83-10.73,6.18-22.02,6.97-33.62,1.18.39,2.36.76,3.55,1.13.64,6.3.97,12.67.97,19.08,0,17.46-2.4,34.55-7.01,50.91Zm5.73-72.89c-1.02-.32-2.05-.65-3.07-.99.09-1.98.14-3.96.14-5.96,0-4.8-.28-9.55-.8-14.24,1.64,6.95,2.89,14.03,3.73,21.19Zm-53.27-109.72c3.01,3.01,5.89,6.1,8.66,9.27-20.11-18.11-45.12-29.09-71.92-31.64-9.93-13.69-23.88-24.29-40.1-30.05,38.99,5.92,74.95,24.01,103.36,52.42Zm-263.41,0c28.59-28.59,64.85-46.75,104.13-52.54-16.37,5.73-30.44,16.39-40.45,30.18-27.74,2.64-53.56,14.31-74.01,33.57,3.28-3.85,6.72-7.59,10.33-11.21Zm-53.59,112.62c1.33-.41,2.65-.84,3.97-1.27.78,11.64,3.14,22.98,6.98,33.76-3.2,8.9-4.95,18.48-4.95,28.47,0,3.94.28,7.82.8,11.62-5.11-17.13-7.76-35.11-7.76-53.49,0-6.42.33-12.78.97-19.08Zm53.59,150.79c-10.39-10.39-19.39-21.8-26.93-33.99,8.74,9.58,19.8,17.59,32.54,23.34,12.13,5.48,24.99,8.61,37.89,9.39,14.99,13.6,31,25.93,47.89,36.91-2.38,3.83-5.09,7.48-8.12,10.92-1.23.07-2.46.12-3.69.16v.47c-29.77-8.63-57.06-24.66-79.59-47.19Zm263.41,0c-22.42,22.42-49.56,38.41-79.17,47.07v-.34c-1.38-.04-2.76-.1-4.13-.18-2.98-3.39-5.66-6.99-8.01-10.76,16.98-11.02,33.06-23.39,48.12-37.05,12.8-.81,25.55-3.93,37.59-9.37,6.98-3.15,13.46-6.98,19.32-11.38,2.47-1.82,4.83-3.78,7.09-5.85,2.15-1.96,4.2-4,6.13-6.12-7.54,12.19-16.54,23.6-26.93,33.99Z"/><path class="cls-3" d="m951.81,633.97c1.14,0,2.12.69,2.53,1.68,6.46,15.07,17.13,27.96,30.96,36.58l.03-.05c5.9,3.6,10.65,8.9,13.55,15.23l.04-.02c5.4,9.65,2.03,23.34-6.86,29.41l.04.05c-7.79,5.76-19.03,7.66-28.98,3.28l.07.02c-1.75-.78-3.86.6-3.82,2.53h-.03c.31,4.78,2.07,9.16,4.84,12.71h0c.68.86,0,2.24-1.1,2.2-3.77.86-7.64,1.23-11.5,1.23-3.86,0-7.73-.37-11.5-1.23-1.1.04-1.78-1.34-1.1-2.2h0c2.77-3.56,4.53-7.94,4.84-12.72h-.03c.04-1.93-2.07-3.32-3.82-2.54l.07-.02c-9.95,4.38-21.19,2.48-28.98-3.28l.04-.05c-8.89-6.07-12.26-19.76-6.86-29.41l.04.02c2.9-6.33,7.65-11.63,13.55-15.23l.03.05c13.82-8.62,24.49-21.51,30.96-36.58.42-.99,1.4-1.68,2.53-1.68h.5Z"/><path class="cls-2" d="m1051.85,582.5c3.48-1.4,5.26-4.74,5.25-8.06-.04,3.59-2.18,6.66-5.25,8.06Z"/><path class="cls-2" d="m1057.09,573.98c0,.15.01.3.01.46,0-.03,0-.06,0-.09,0-.12-.01-.24-.02-.37Z"/><path class="cls-2" d="m1046.76,583.18c.46.07.92.12,1.4.12,1.32,0,2.57-.29,3.69-.8-1.08.43-2.31.68-3.71.68h-1.38Z"/><path class="cls-2" d="m1057.09,573.98c0-.1,0-.2-.01-.29-.34-4.64-4.2-8.29-8.92-8.29-.02,0-.04,0-.05,0,0-.33-.01-.66-.02-.98.04-.35.07-.7.07-1.05,0-.87-.14-1.71-.39-2.51-1.06-3.35-4.19-5.78-7.9-5.78-1.99,0-3.81.7-5.24,1.87h0s0-.04-.01-.06c-.65.47-1.31.98-1.99,1.54-8.17,6.74-14.73,15.45-18.2,24.71,11.82,0,18.45.03,32.33.03h1.38c1.4,0,2.63-.25,3.71-.68,3.07-1.4,5.22-4.47,5.25-8.06,0-.15,0-.3-.01-.46Z"/><path class="cls-2" d="m850.77,582.5c-3.48-1.4-5.26-4.74-5.25-8.06.04,3.59,2.18,6.66,5.25,8.06Z"/><path class="cls-2" d="m845.53,573.98c0,.15-.01.3-.01.46,0-.03,0-.06,0-.09,0-.12.01-.24.02-.37Z"/><path class="cls-2" d="m855.86,583.18c-.46.07-.92.12-1.4.12-1.32,0-2.57-.29-3.69-.8,1.08.43,2.31.68,3.71.68h1.38Z"/><path class="cls-2" d="m845.53,573.98c0-.1,0-.2.01-.29.34-4.64,4.2-8.29,8.92-8.29.02,0,.04,0,.05,0,0-.33.01-.66.02-.98-.04-.35-.07-.7-.07-1.05,0-.87.14-1.71.39-2.51,1.06-3.35,4.19-5.78,7.9-5.78,1.99,0,3.81.7,5.24,1.87h0s0-.04.01-.06c.65.47,1.31.98,1.99,1.54,8.17,6.74,14.73,15.45,18.2,24.71-11.82,0-18.45.03-32.33.03h-1.38c-1.4,0-2.63-.25-3.71-.68-3.07-1.4-5.22-4.47-5.25-8.06,0-.15,0-.3.01-.46Z"/><path class="cls-4" d="m251.89,888.58h11.91l30.83,112.25h.35l31.36-112.25h14.71l31.36,112.25h.35l30.83-112.25h11.91l-36.09,126.75h-14.19l-31.36-112.79h-.35l-31.36,112.79h-14.19l-36.09-126.75Z"/><path class="cls-4" d="m519.66,888.58h11.56v126.75h-11.56v-126.75Z"/><path class="cls-4" d="m650.04,888.58h14.89l75.5,111h.35v-111h11.56v126.75h-14.89l-75.5-111h-.35v111h-11.56v-126.75Z"/><path class="cls-4" d="m871.33,888.58h35.74c4.32,0,8.85.51,13.58,1.52,4.73,1.02,9.05,2.78,12.96,5.28,3.91,2.51,7.12,5.94,9.63,10.29,2.51,4.36,3.77,9.82,3.77,16.38,0,5.73-1.02,10.68-3.07,14.86-2.04,4.18-4.79,7.61-8.23,10.29-3.45,2.69-7.42,4.69-11.91,6-4.5,1.31-9.2,1.97-14.1,1.97h-26.8v60.15h-11.56v-126.75Zm11.56,55.86h26.28c3.27,0,6.48-.39,9.63-1.16,3.15-.77,5.96-2.03,8.41-3.76,2.45-1.73,4.44-4.03,5.96-6.89,1.52-2.86,2.28-6.38,2.28-10.56s-.79-7.52-2.37-10.38c-1.58-2.86-3.62-5.22-6.13-7.07-2.51-1.85-5.4-3.19-8.67-4.03-3.27-.83-6.54-1.25-9.81-1.25h-25.58v45.12Z"/><path class="cls-4" d="m1054.33,888.58h11.56v55.86h69.37v-55.86h11.56v126.75h-11.56v-60.15h-69.37v60.15h-11.56v-126.75Z"/><path class="cls-4" d="m1265.64,888.58h11.56v126.75h-11.56v-126.75Z"/><path class="cls-4" d="m1396.02,888.58h11.56v116.01h57.81v10.74h-69.37v-126.75Z"/><path class="cls-4" d="m1569.71,888.58h75.85v10.74h-64.29v45.12h60.26v10.74h-60.26v49.41h67.09v10.74h-78.65v-126.75Z"/></svg>